<svg width="25" height="25" viewBox="0 0 25 25" fill="none" xmlns="http://www.w3.org/2000/svg">
<path fill-rule="evenodd" clip-rule="evenodd" d="M21.2281 21.75H21.0209C18.7615 21.75 16.7464 20.2259 15.9905 17.9459L12.9396 8.74629L11.1118 14.2574C10.6162 14.3507 10.1632 14.4487 9.8845 14.5135C9.23977 14.6575 8.39317 14.86 7.76567 15.128C7.39553 15.287 7.03736 15.445 6.68262 15.6235L10.9511 2.74998H14.9279L21.2281 21.75Z" fill="#50565F"/>
<path fill-rule="evenodd" clip-rule="evenodd" d="M14.4401 14.9589C14.2508 14.9625 14.1785 14.9905 14.0434 15.0503C13.8887 15.1153 13.729 15.2353 13.6084 15.3539L13.3127 15.6701C13.2848 15.7012 13.2849 15.7069 13.2642 15.7371C12.7132 16.5029 12.5896 16.6254 12.1567 17.5954C11.9553 18.0478 11.7246 18.4709 11.4754 18.8879C11.304 19.172 11.1476 19.4589 10.9535 19.725C10.9344 19.7526 10.9209 19.765 10.9018 19.7895C10.7825 19.9556 10.6285 20.1053 10.4858 20.2484C10.3903 20.3449 10.2716 20.4373 10.1622 20.52C10.0679 20.5872 9.97744 20.6614 9.87243 20.723L9.71819 20.8156C9.68487 20.8372 9.67451 20.8495 9.64095 20.8673C9.61627 20.8797 9.59109 20.8955 9.56654 20.908C9.53655 20.9232 9.50891 20.9326 9.4777 20.9484C8.86591 21.2922 8.05879 21.5163 7.35976 21.6095L6.92936 21.6683C6.80424 21.6892 6.46207 21.7077 6.14791 21.7135C5.88582 21.7184 5.64385 21.7134 5.56599 21.6977L5.61374 21.5622C5.71505 21.3061 5.82894 21.0555 5.95307 20.8137C5.97479 20.775 5.98503 20.7418 6.00983 20.6995L6.2618 20.2322L6.89235 19.2609L7.466 18.595C7.48229 18.5769 7.49044 18.5647 7.50722 18.546C7.53177 18.5219 7.53474 18.525 7.55695 18.5037L7.69108 18.3754C7.71032 18.3605 7.71835 18.3514 7.74068 18.3357C7.77634 18.3051 7.79201 18.2872 7.82817 18.2565L8.43872 17.7876C8.64294 17.6371 8.86332 17.4995 9.07296 17.3634L9.73411 16.9653C9.98238 16.8266 10.4098 16.5772 10.6448 16.4648L11.335 16.1074C11.2352 16.1194 11.1055 16.1835 11.0114 16.2208C10.9002 16.2624 10.8037 16.2998 10.6925 16.3405L10.0651 16.5912C9.75805 16.7082 9.454 16.8631 9.15613 16.9972L8.57828 17.2862C8.36333 17.3856 8.02621 17.5813 7.80879 17.7187C7.56373 17.8702 7.33274 18.0479 7.09261 18.2074L6.2929 18.8349C6.27365 18.8513 6.25428 18.8655 6.23503 18.8817L5.78254 19.311C5.64829 19.4658 5.4896 19.615 5.36374 19.7787C5.34178 19.8091 5.3419 19.8153 5.31451 19.8457C5.19704 19.9801 5.09413 20.1306 4.9927 20.2794C4.84364 20.5033 4.70519 20.7358 4.57809 20.974L4.36771 21.4177C4.28429 21.6048 3.94188 22.5013 3.9262 22.7496L3.90078 22.75C3.90017 22.7176 3.80515 22.3101 3.77788 21.9587L3.77344 21.6676C3.77332 21.6595 3.77554 21.65 3.77529 21.6385C3.79726 21.4492 3.79306 21.3242 3.82835 21.084C3.91522 20.4222 4.17176 19.7539 4.50566 19.1911L4.8482 18.6473C4.94359 18.505 5.31451 18.0406 5.42482 17.9464C5.53181 17.8515 5.62719 17.7093 5.74232 17.6138C5.79192 17.5723 5.84115 17.5135 5.89619 17.4674C5.95344 17.4192 5.99478 17.3733 6.05253 17.327L6.37977 17.0579C6.71219 16.7887 7.06954 16.5494 7.43972 16.3418C7.83446 16.1221 8.22685 15.9419 8.63825 15.7601C9.17476 15.5238 9.89797 15.3458 10.4504 15.2185C11.0328 15.0786 12.5084 14.7676 13.2183 14.7544L13.3708 14.7515C13.7386 14.7446 14.3062 14.7524 14.4401 14.9589Z" fill="#4BB35E"/>
</svg>
