<svg width="58" height="54" viewBox="0 0 58 54" fill="none" xmlns="http://www.w3.org/2000/svg">
<g id="Group 245">
<circle id="Ellipse 28" cx="25.4252" cy="26.4033" r="25.4252" fill="#F1FFF3"/>
<g id="Group">
<path id="Vector" d="M21.0653 37.3398L18.8884 38.3528C18.4824 38.5417 18.2821 38.9967 18.4409 39.369L22.6326 49.1963C22.7914 49.5686 23.2493 49.7173 23.6552 49.5284L25.8321 48.5154C26.2381 48.3265 26.4384 47.8715 26.2796 47.4992L22.0879 37.6719C21.9291 37.2995 21.4712 37.1509 21.0653 37.3398Z" stroke="black" stroke-width="0.532984" stroke-linecap="round" stroke-linejoin="round"/>
<g id="Group_2">
<path id="Vector_2" d="M10.0475 38.844C11.2841 38.5616 12.1582 37.4306 11.9997 36.3179C11.8412 35.2051 10.7102 34.532 9.47356 34.8144C8.23689 35.0968 7.36285 36.2278 7.52133 37.3405C7.67982 38.4533 8.81081 39.1264 10.0475 38.844Z" fill="#18B797"/>
<path id="Vector_3" d="M19.2958 27.152L23.4104 38.3192C28.4477 36.2678 33.8773 35.6681 38.967 36.5958L50.2328 38.6569L38.9031 7.8986L31.8969 17.4017C28.7314 21.6977 24.3331 25.1006 19.3001 27.151L19.2958 27.152Z" fill="#18B797"/>
<g id="Group_3">
<path id="Vector_4" d="M23.0539 35.878L16.9173 38.4473C16.4247 38.6536 16.1524 39.1736 16.309 39.6087L17.1472 41.9374C17.3039 42.3725 17.8302 42.5581 18.3228 42.3518L24.4594 39.7825C24.952 39.5762 25.2243 39.0563 25.0677 38.6211L24.2294 36.2924C24.0728 35.8573 23.5465 35.6717 23.0539 35.878Z" fill="#18B797"/>
<path id="Vector_5" d="M18.8286 42.1912C17.8946 42.419 16.9785 42.0333 16.6812 41.2413L16.3552 40.3683C16.0271 39.4806 16.6015 38.418 17.6344 37.9996L22.2119 36.1387C23.249 35.7193 24.3591 36.0982 24.6867 36.9822L25.0127 37.8552C25.3408 38.7429 24.7664 39.8055 23.7335 40.224L19.1559 42.0848C19.0452 42.1295 18.9377 42.1659 18.8286 42.1912ZM22.5843 36.2924C22.4921 36.3138 22.3971 36.3472 22.3069 36.3833L17.7293 38.2442C16.8522 38.5998 16.3636 39.5016 16.6427 40.256L16.9687 41.1289C17.2472 41.8796 18.1891 42.2022 19.0704 41.8456L23.648 39.9848C24.5251 39.6291 25.0137 38.7273 24.7346 37.973L24.4086 37.1C24.1583 36.4266 23.3762 36.1012 22.5885 36.2914L22.5843 36.2924Z" fill="#18B797"/>
</g>
<path id="Vector_6" d="M50.2064 39.9548C52.6385 38.9496 51.9824 30.891 48.741 21.9553C45.4996 13.0197 40.9003 6.59074 38.4682 7.59594C36.0361 8.60114 36.6921 16.6598 39.9336 25.5955C43.175 34.5311 47.7743 40.96 50.2064 39.9548Z" fill="#18B797"/>
</g>
<path id="Vector_7" d="M17.1853 40.579C14.3111 41.2462 11.4462 39.9371 10.493 37.3676L10.0997 36.3064C9.03599 33.4334 10.7625 30.0592 13.9497 28.7802L20.3324 26.2204C20.4022 26.1932 20.4802 26.2201 20.5074 26.2861L24.6684 37.5272C24.6814 37.5564 24.6782 37.593 24.6612 37.6247C24.6442 37.6564 24.6176 37.6822 24.5803 37.6943L18.1976 40.2542C17.861 40.3876 17.5204 40.4939 17.1847 40.5751L17.1853 40.579Z" fill="#109D82"/>
<path id="Vector_8" opacity="0.18" d="M38.1203 7.91333C38.0294 7.17086 36.0916 10.4916 36.0916 10.4916C35.4968 14.4278 36.1881 19.7451 38.253 25.1894C41.1652 32.8662 46.6888 37.4533 50.8025 38.5936C50.8025 38.5936 41.0159 31.1437 38.1203 7.91333Z" fill="white"/>
<path id="Vector_9" d="M40.0066 4.17344L32.4854 14.5767C29.0878 19.2763 24.3358 22.971 18.8774 25.161L23.4728 37.5782C28.9312 35.3882 34.8358 34.808 40.3843 35.9202L52.6635 38.3777" stroke="black" stroke-width="0.532984" stroke-linecap="round" stroke-linejoin="round"/>
<path id="Vector_10" d="M51.3843 35.6305C53.4892 34.7772 52.8498 27.6755 49.956 19.7683C47.0623 11.8612 43.01 6.14284 40.9051 6.99608C38.8002 7.84932 39.4396 14.951 42.3333 22.8582C45.2271 30.7654 49.2793 36.4837 51.3843 35.6305Z" fill="white"/>
<path id="Vector_11" d="M52.7111 39.3549C55.299 38.3058 54.5195 29.5926 50.9701 19.8934C47.4207 10.1942 42.4455 3.18189 39.8576 4.23092C37.2697 5.27996 38.0492 13.9931 41.5986 23.6923C45.148 33.3915 50.1233 40.4039 52.7111 39.3549Z" fill="white"/>
<path id="Vector_12" opacity="0.25" d="M51.3843 35.6305C53.4892 34.7772 52.8498 27.6755 49.956 19.7683C47.0623 11.8612 43.01 6.14284 40.9051 6.99608C38.8002 7.84932 39.4396 14.951 42.3333 22.8582C45.2271 30.7654 49.2793 36.4837 51.3843 35.6305Z" fill="#139C54"/>
<path id="Vector_13" d="M43.9455 26.9366L44.0289 26.9022C46.0666 26.0851 47.1667 23.9422 46.4894 22.1091C45.8078 20.277 43.6084 19.4531 41.57 20.2662L41.47 20.3083" fill="#06261F"/>
<path id="Vector_14" d="M43.9308 26.1568L44.0142 26.1224C46.052 25.3054 47.152 23.1624 46.4747 21.3294C45.7931 19.4972 43.5937 18.6733 41.5553 19.4865L41.4554 19.5285" stroke="black" stroke-width="0.532984" stroke-linecap="round" stroke-linejoin="round"/>
<path id="Vector_15" d="M52.738 39.4847C55.3582 38.4226 54.5631 29.5848 50.9621 19.7449C47.361 9.90495 42.3177 2.78916 39.6975 3.85128C37.0772 4.91339 37.8723 13.7512 41.4734 23.5911C45.0744 33.431 50.1177 40.5468 52.738 39.4847Z" stroke="black" stroke-width="0.532984" stroke-linecap="round" stroke-linejoin="round"/>
<path id="Vector_16" d="M24.3186 36.8912L18.7348 39.6359C14.9393 41.2013 10.7996 39.702 9.4879 36.2837C8.13407 32.7585 10.2085 28.593 14.1228 26.9777L19.5961 24.7176" stroke="black" stroke-width="0.532984" stroke-linecap="round" stroke-linejoin="round"/>
</g>
</g>
</svg>
