<svg style="position: absolute; width: 0; height: 0; overflow: hidden;" version="1.1"
     xmlns="http://www.w3.org/2000/svg"
     xmlns:xlink="http://www.w3.org/1999/xlink">
    <svg id="icon-tve-dash-notification" width="40" height="41" viewBox="0 0 40 41" fill="none" xmlns="http://www.w3.org/2000/svg">
        <circle opacity="0.7" cx="20" cy="20.7935" r="20"/>
        <rect x="10" y="10.7935" width="20" height="20" rx="1"/>
        <path d="M30 25.0793H23.5135C23.5135 25.0793 23.5135 27.9365 20.2703 27.9365C17.027 27.9365 17.027 25.0793 17.027 25.0793H10"/>
    </svg>

    <svg id="icon-tve-dash-tar" width="16" height="16" viewBox="0 0 16 16" fill="none" xmlns="http://www.w3.org/2000/svg">
        <rect x="1" y="1" width="14" height="14" rx="1" stroke="#879198" stroke-width="1.5"/>
        <path d="M15 11H10.4595C10.4595 11 10.4595 13 8.18919 13C5.91892 13 5.91892 11 5.91892 11H1" stroke="#879198" stroke-width="1.5"/>
    </svg>

    <svg id="icon-tvd-notification-cross" viewBox="0 0 12 12" fill="none" xmlns="http://www.w3.org/2000/svg">
        <path d="M11.8211 1.3415L10.6451 0.166504L5.98305 4.82484L1.32097 0.166504L0.14502 1.3415L4.80711 5.99984L0.14502 10.6582L1.32097 11.8332L5.98305 7.17484L10.6451 11.8332L11.8211 10.6582L7.159 5.99984L11.8211 1.3415Z" fill="currentColor"/>
    </svg>

    <svg id="icon-notification-type-error" viewBox="0 0 24 24" fill="none" xmlns="http://www.w3.org/2000/svg">
        <path fill-rule="evenodd" clip-rule="evenodd" d="M12 2.00006C6.47 2.00006 2 6.47006 2 12.0001C2 17.5301 6.47 22.0001 12 22.0001C17.53 22.0001 22 17.5301 22 12.0001C22 6.47006 17.53 2.00006 12 2.00006ZM14.59 8.00006L12 10.5901L9.41 8.00006L8 9.41006L10.59 12.0001L8 14.5901L9.41 16.0001L12 13.4101L14.59 16.0001L16 14.5901L13.41 12.0001L16 9.41006L14.59 8.00006ZM4 12.0001C4 16.4101 7.59 20.0001 12 20.0001C16.41 20.0001 20 16.4101 20 12.0001C20 7.59006 16.41 4.00006 12 4.00006C7.59 4.00006 4 7.59006 4 12.0001Z" fill="currentColor"/>
    </svg>

    <svg id="icon-notification-type-info" viewBox="0 0 24 24" fill="none" xmlns="http://www.w3.org/2000/svg">
        <path fill-rule="evenodd" clip-rule="evenodd" d="M12 2C6.48 2 2 6.48 2 12C2 17.52 6.48 22 12 22C17.52 22 22 17.52 22 12C22 6.48 17.52 2 12 2ZM12 20C7.59 20 4 16.41 4 12C4 7.59 7.59 4 12 4C16.41 4 20 7.59 20 12C20 16.41 16.41 20 12 20ZM10 14.17L16.59 7.58L18 9L10 17L6 13L7.41 11.59L10 14.17Z" fill="currentColor"/>
    </svg>

    <svg id="icon-notification-type-success" viewBox="0 0 24 24" fill="none" xmlns="http://www.w3.org/2000/svg">
        <path fill-rule="evenodd" clip-rule="evenodd" d="M12 2C6.48 2 2 6.48 2 12C2 17.52 6.48 22 12 22C17.52 22 22 17.52 22 12C22 6.48 17.52 2 12 2ZM12 20C7.59 20 4 16.41 4 12C4 7.59 7.59 4 12 4C16.41 4 20 7.59 20 12C20 16.41 16.41 20 12 20ZM10 14.17L16.59 7.58L18 9L10 17L6 13L7.41 11.59L10 14.17Z" fill="currentColor"/>
    </svg>

    <svg id="icon-notification-type-warning" viewBox="0 0 24 24" fill="none" xmlns="http://www.w3.org/2000/svg">
        <path fill-rule="evenodd" clip-rule="evenodd" d="M11.99 2.00012C6.47 2.00012 2 6.48012 2 12.0001C2 17.5201 6.47 22.0001 11.99 22.0001C17.52 22.0001 22 17.5201 22 12.0001C22 6.48012 17.52 2.00012 11.99 2.00012ZM13 13.0001V7.00012H11V13.0001H13ZM13 17.0001V15.0001H11V17.0001H13ZM4 12.0001C4 16.4201 7.58 20.0001 12 20.0001C16.42 20.0001 20 16.4201 20 12.0001C20 7.58012 16.42 4.00012 12 4.00012C7.58 4.00012 4 7.58012 4 12.0001Z" fill="currentColor"></path>
    </svg>
</svg>

