<svg viewBox="0 0 42 42" fill="none" xmlns="http://www.w3.org/2000/svg">
<path d="M7.95021 34.9249C10.3496 37.3234 13.4993 38.5223 16.6507 38.5223C19.8021 38.5223 22.9517 37.3234 25.3512 34.9249C27.3147 32.9621 28.5376 30.4309 28.8671 27.7065C29.7599 27.2411 30.6012 26.6908 31.3223 25.9689C33.0296 24.2616 34.0523 22.0592 34.2685 19.6685C34.8229 19.3334 35.3465 18.9596 35.7999 18.5058C38.9513 15.3544 38.9513 10.2266 35.7999 7.07535C34.2704 5.54585 32.2418 4.7041 30.0851 4.7041C27.9266 4.7041 25.898 5.54655 24.3703 7.07448C23.9041 7.54068 23.5221 8.08213 23.1805 8.65543C20.8111 8.87558 18.6077 9.85138 16.9037 11.5536C16.1834 12.2755 15.6339 13.1165 15.169 14.0085C12.4463 14.337 9.91336 15.5601 7.95021 17.5241C5.62603 19.8465 4.34766 22.9365 4.34766 26.2246C4.34766 29.5126 5.62586 32.6024 7.95021 34.9249ZM33.3252 9.54985C34.9454 11.17 35.0957 13.7121 33.7781 15.5048C33.7142 15.3161 33.6297 15.1357 33.555 14.9512C33.5154 14.8529 33.4792 14.7544 33.4365 14.6572C33.2102 14.1447 32.9421 13.6524 32.6334 13.1818C32.5738 13.0908 32.5087 13.0044 32.446 12.9149C32.109 12.4354 31.7432 11.9734 31.3222 11.5517C30.9004 11.1303 30.4381 10.7644 29.9584 10.4273C29.8693 10.3648 29.783 10.2999 29.6924 10.2404C29.2194 9.9303 28.7246 9.66133 28.2093 9.4347C28.1162 9.39393 28.0217 9.35945 27.9275 9.3213C27.7415 9.24605 27.5597 9.16083 27.3693 9.0966C29.1193 7.80248 31.7528 7.9794 33.3252 9.54985ZM19.3798 14.0283C20.6718 12.7354 22.3791 12.0168 24.2249 12.063C24.6624 12.0721 25.093 12.1227 25.5122 12.2125C26.7697 12.482 27.9235 13.1055 28.8477 14.0283C29.223 14.404 29.5303 14.8277 29.8032 15.2713C30.422 16.2788 30.7849 17.4303 30.8122 18.6437C30.8337 20.4819 30.1374 22.2045 28.8477 23.4944C28.7946 23.5465 28.7418 23.5978 28.6888 23.6473C28.6714 23.5653 28.6384 23.4883 28.6193 23.4067C28.5236 22.9965 28.4072 22.5935 28.2702 22.1975C28.2315 22.0858 28.1991 21.9722 28.1573 21.8618C27.9737 21.3771 27.7602 20.9046 27.5154 20.4464C27.4632 20.3489 27.4023 20.2565 27.3476 20.1603C27.1377 19.7921 26.9083 19.4347 26.6595 19.0875C26.5741 18.9684 26.4894 18.8495 26.3994 18.733C26.0753 18.3135 25.7328 17.9056 25.351 17.5239C24.9733 17.1468 24.5698 16.8076 24.1549 16.4869C24.0245 16.3859 23.891 16.2914 23.7573 16.196C23.4444 15.9736 23.1229 15.768 22.7928 15.5772C22.6576 15.4986 22.5263 15.4139 22.3884 15.3408C21.957 15.1129 21.5134 14.9119 21.0588 14.7376C20.893 14.674 20.7231 14.6247 20.5546 14.5683C20.2242 14.4581 19.8901 14.3606 19.5503 14.2785C19.4411 14.2523 19.3376 14.2087 19.2277 14.1854C19.2773 14.1326 19.3285 14.0796 19.3798 14.0283ZM10.4247 19.9986C12.009 18.4136 14.1093 17.4984 16.3327 17.4207C16.7216 17.4088 17.0915 17.4634 17.4674 17.4977C17.7416 17.5232 18.0208 17.5269 18.2885 17.5771C18.5463 17.6247 18.7873 17.7166 19.037 17.7864C19.355 17.8758 19.6794 17.9472 19.9843 18.0718C20.1789 18.1515 20.3551 18.2699 20.543 18.3636C20.8719 18.5268 21.207 18.6777 21.5146 18.8826C21.9968 19.2057 22.4537 19.5756 22.8763 19.9986C24.6151 21.7374 25.5307 24.0598 25.4548 26.5392C25.3755 28.7659 24.4616 30.8649 22.8763 32.4502C19.4447 35.8817 13.8563 35.8817 10.4247 32.4502C8.76186 30.7882 7.84748 28.5767 7.84748 26.2244C7.84748 23.872 8.76186 21.6606 10.4247 19.9986Z" fill="#020617"/>
</svg>
